<svg width="53" height="50" fill="none" xmlns="http://www.w3.org/2000/svg"><path d="M47.369 0a5.265 5.265 0 00-5.266 5.265v29.082a5.267 5.267 0 01-5.456 5.122c-2.79-.1-5.066-2.583-5.066-5.373V5.265a5.265 5.265 0 10-10.528 0v28.828c0 2.793-2.279 5.273-5.066 5.374a5.267 5.267 0 01-5.457-5.122V5.265a5.266 5.266 0 00-10.53 0v28.947c0 1.846.316 3.618.9 5.263C3.063 45.605 8.911 50 15.79 50c4.046 0 7.735-1.523 10.526-4.021A15.74 15.74 0 0036.843 50c6.878 0 12.727-4.393 14.892-10.525.583-1.645.899-3.417.899-5.263V5.265A5.264 5.264 0 0047.369 0z" fill="#B769A0"/></svg>